<svg xmlns="http://www.w3.org/2000/svg" width="128" height="128" viewBox="0 0 128 128">
  <!-- Simple background with gradient -->
  <defs>
    <linearGradient id="grad1" x1="0%" y1="0%" x2="100%" y2="100%">
      <stop offset="0%" style="stop-color:#4f46e5;stop-opacity:1" /> <!-- Indigo-600 -->
      <stop offset="100%" style="stop-color:#4338ca;stop-opacity:1" /> <!-- Indigo-700 -->
    </linearGradient>
  </defs>
  
  <rect x="0" y="0" width="128" height="128" rx="24" fill="url(#grad1)" />
  
  <!-- Tab Shapes (White/Transparent) -->
  <path d="M34 44 h60 a4 4 0 0 1 4 4 v44 a4 4 0 0 1 -4 4 h-60 a4 4 0 0 1 -4 -4 v-44 a4 4 0 0 1 4 -4 z" fill="rgba(255,255,255,0.2)" />
  <path d="M42 34 h44 a4 4 0 0 1 4 4 v6 a0 0 0 0 1 0 0 h-52 a0 0 0 0 1 0 0 v-6 a4 4 0 0 1 4 -4 z" fill="rgba(255,255,255,0.4)" />
  
  <!-- Focus Target (Amber) -->
  <circle cx="64" cy="74" r="16" fill="none" stroke="#fbbf24" stroke-width="6" /> <!-- Amber-400 -->
  <circle cx="64" cy="74" r="6" fill="#fbbf24" />
</svg>
